<svg xmlns="http://www.w3.org/2000/svg" version="1.1" xmlns:xlink="http://www.w3.org/1999/xlink" xmlns:svgjs="http://svgjs.dev/svgjs" width="2000" height="500" preserveAspectRatio="none" viewBox="0 0 2000 500"><g mask="url(&quot;#SvgjsMask1134&quot;)" fill="none"><rect width="2000" height="500" x="0" y="0" fill="url(&quot;#SvgjsLinearGradient1135&quot;)"></rect><path d="M2000 0L1565.84 0L2000 146.2z" fill="rgba(255, 255, 255, .1)"></path><path d="M1565.84 0L2000 146.2L2000 339.22L1080.32 0z" fill="rgba(255, 255, 255, .075)"></path><path d="M1080.32 0L2000 339.22L2000 345.11L946.01 0z" fill="rgba(255, 255, 255, .05)"></path><path d="M946.01 0L2000 345.11L2000 451.69L438.51 0z" fill="rgba(255, 255, 255, .025)"></path><path d="M0 500L857.28 500L0 390.75z" fill="rgba(0, 0, 0, .1)"></path><path d="M0 390.75L857.28 500L1143.36 500L0 222.21z" fill="rgba(0, 0, 0, .075)"></path><path d="M0 222.21000000000004L1143.36 500L1384.03 500L0 114.48000000000003z" fill="rgba(0, 0, 0, .05)"></path><path d="M0 114.48000000000002L1384.03 500L1432.56 500L0 36.910000000000025z" fill="rgba(0, 0, 0, .025)"></path></g><defs><mask id="SvgjsMask1134"><rect width="2000" height="500" fill="#ffffff"></rect></mask><linearGradient x1="81.25%" y1="-75%" x2="18.75%" y2="175%" gradientUnits="userSpaceOnUse" id="SvgjsLinearGradient1135"><stop stop-color="rgba(220, 201, 43, 1)" offset="0"></stop><stop stop-color="rgba(255, 95, 0, 0.7)" offset="1"></stop></linearGradient></defs></svg>