<?xml version="1.0" encoding="utf-8"?>
<!-- Generator: Adobe Illustrator 22.1.0, SVG Export Plug-In . SVG Version: 6.00 Build 0)  -->
<svg version="1.1" id="Layer_1" xmlns="http://www.w3.org/2000/svg" xmlns:xlink="http://www.w3.org/1999/xlink" x="0px" y="0px"
	  width="258" height="250" viewBox="0 0 258 250" style="enable-background:new 0 0 258 250;" xml:space="preserve">
<style type="text/css">
	.st0{fill:#FFFFFF;}
	.st1{opacity:0.15;}
	.st2{opacity:0.15;fill:#77787B;}
</style>
<g>
	<g>
		<path class="st0" d="M1.5,231.8c0-5.6,4.4-9.9,9.6-9.9c3.7,0,6.9,1.9,8.4,5.5l-2.7,1.2c-1-2.6-3.1-3.9-5.7-3.9
			c-3.6,0-6.4,3-6.4,7.1c0,4.3,2.8,7.1,6.5,7.1c2.7,0,5-1.6,5.9-4.3l2.9,1c-1.3,3.7-4.7,6.1-8.7,6.1C5.8,241.7,1.5,237.8,1.5,231.8z
			"/>
		<path class="st0" d="M23.4,222.2h2.9v19.2h-2.9V222.2z"/>
		<path class="st0" d="M31.5,222.2h7.3c3.9,0,6.7,2.5,6.7,6c0,2.5-1.5,4.5-3.8,5.5l4.7,7.7h-3.5l-4.3-7.2h-4.2v7.2h-2.9V222.2z
			 M34.4,224.9v6.7h4.1c2.5,0,3.9-1.4,3.9-3.3c0-2-1.4-3.4-3.9-3.4H34.4z"/>
		<path class="st0" d="M77.9,248.6c-9.5,0-15.3-5.6-21.9-7.1c-4.2-1-7.5-4.8-7.5-9.6c0-5.7,4.4-9.9,9.7-9.9s9.7,4.2,9.7,9.9
			c0,4.2-2.5,7.6-6.1,9c5.5,2.1,10.6,5.8,17.5,5.8c2.9,0,5.6-0.8,8.2-2.6l0.6,0.9C85.5,247.2,82.3,248.6,77.9,248.6z M64.7,231.8
			c0-4.2-2.9-7.1-6.6-7.1c-3.7,0-6.6,2.9-6.6,7.1c0,4.2,2.9,7.1,6.6,7.1C61.9,238.9,64.7,236,64.7,231.8z"/>
		<path class="st0" d="M71.7,234v-11.8h2.9v11.6c0,3.3,1.8,5.1,4.8,5.1c2.9,0,4.8-1.8,4.8-5.1v-11.6h2.9V234c0,4.7-3.3,7.7-7.7,7.7
			C74.9,241.7,71.7,238.8,71.7,234z"/>
		<path class="st0" d="M91.9,222.2h13.2v2.7H94.8v5.6h9.3v2.6h-9.3v5.6h10.4v2.7H91.9V222.2z"/>
		<path class="st0" d="M116.3,222.2h6.5c5.6,0,9.8,4,9.8,9.6c0,5.5-4.1,9.6-9.8,9.6h-6.5V222.2z M119.2,224.9v13.8h3.2
			c4.2,0,7-2.8,7-6.9c0-4.1-2.8-6.9-7-6.9H119.2z"/>
		<path class="st0" d="M136.3,234v-11.8h2.9v11.6c0,3.3,1.8,5.1,4.8,5.1c2.9,0,4.8-1.8,4.8-5.1v-11.6h2.9V234c0,4.7-3.3,7.7-7.7,7.7
			C139.6,241.7,136.3,238.8,136.3,234z"/>
		<path class="st0" d="M170.8,233.4l-2.6-0.6c-3.5-0.8-5.1-3.2-5.1-5.4c0-2.9,2.5-5.5,6.5-5.5c3.6,0,6.1,2.2,6.6,5.1l-2.8,0.5
			c-0.3-1.9-1.6-3-3.9-3c-2.4,0-3.5,1.4-3.5,2.8c0,1.3,0.8,2.4,3,2.9l2.5,0.6c3.4,0.8,5.2,2.9,5.2,5.3c0,3.2-2.6,5.7-7,5.7
			c-4.2,0-6.9-2.6-7.2-6l2.9-0.5c0.2,2.3,1.6,3.8,4.4,3.8c2.5,0,3.8-1.3,3.8-2.9C173.6,235,172.8,233.9,170.8,233.4z"/>
		<path class="st0" d="M179.6,231.8c0-5.7,4.4-9.9,9.7-9.9s9.7,4.2,9.7,9.9c0,5.6-4.4,9.9-9.7,9.9S179.6,237.5,179.6,231.8z
			 M195.8,231.8c0-4.2-2.9-7.1-6.6-7.1s-6.6,2.9-6.6,7.1c0,4.2,2.9,7.1,6.6,7.1S195.8,236,195.8,231.8z"/>
		<path class="st0" d="M203,222.2h2.9v16.5h9.4v2.7H203V222.2z"/>
		<path class="st0" d="M218.5,222.2h13.2v2.7h-10.3v5.6h9.3v2.6h-9.3v5.6h10.4v2.7h-13.4V222.2z"/>
		<path class="st0" d="M236.1,222.2h2.9v19.2h-2.9V222.2z"/>
		<path class="st0" d="M244.2,222.2h2.9v16.5h9.4v2.7h-12.3V222.2z"/>
	</g>
	<g>
		<path class="st0" d="M254.4,222.2c1.1,0,2.1,0.9,2.1,2.1c0,1.1-0.9,2.1-2.1,2.1c-1.1,0-2.1-0.9-2.1-2.1
			C252.4,223.2,253.3,222.2,254.4,222.2z M254.4,226c0.9,0,1.6-0.7,1.6-1.6c0-0.9-0.7-1.6-1.6-1.6c-0.9,0-1.6,0.7-1.6,1.6
			C252.8,225.2,253.5,226,254.4,226z M254.4,224.6h-0.2v0.8h-0.5v-2.2h0.8c0.4,0,0.8,0.3,0.8,0.7c0,0.3-0.2,0.6-0.5,0.7l0.5,0.9
			h-0.5L254.4,224.6z M254.5,224.2c0.2,0,0.4-0.1,0.4-0.3c0-0.2-0.1-0.3-0.4-0.3h-0.3v0.6H254.5z"/>
	</g>
	<g>
		<g>
			<path class="st0" d="M156.2,115.3l14.7,21.5L153,119c-4.3,4.3-9.7,7.4-15.8,8.9l0.4,1.6c0.2,0.8,0.3,1.5,0.5,2.3
				c0.8,4.3,1.6,8.3,9.2,12.8c6.3,3.6,6.7,10.8,6.5,12.8c1-1,2.4-3.5,2.6-6.6c0.2-2.8-0.5-6.9-5-10.9c-6-5.3-5.1-11.5-4.1-14.7
				l0.2-0.5L183,149l-24.9-36.5C157.5,113.5,156.9,114.4,156.2,115.3z"/>
			<path class="st0" d="M81.1,117.1c8.5,2.3,11.9-0.1,15.5-2.5c0.6-0.4,1.3-0.9,2-1.3l1.4-0.8c-2.3-3.8-3.9-8.1-4.5-12.7l-25.5-4.8
				H95c0,0,0,0,0,0c0-2.8,0.3-5.6,1-8.2l-43.4,8.2l42.4,8l-0.2,0.4c-1.5,3-5.3,8.1-13.3,7.6c-5.9-0.4-9.4,2-11.2,4.1
				c-2.1,2.4-2.8,5.1-2.9,6.5C68.7,120,74.1,115.2,81.1,117.1z"/>
			<path class="st0" d="M110.8,144.5c7.6-4.4,8.4-8.5,9.2-12.8c0.1-0.7,0.3-1.5,0.4-2.2l0.4-1.6c-6.1-1.5-11.5-4.7-15.8-9
				l-17.8,17.8l14.7-21.5c-0.7-0.9-1.3-1.9-1.9-2.8L75,149l35.6-24.3l0.2,0.5c1.1,3.2,2,9.4-4.1,14.7c-4.5,3.9-5.2,8.1-5,10.9
				c0.2,3.1,1.6,5.6,2.6,6.6C104.1,155.3,104.5,148.2,110.8,144.5z"/>
			<path class="st0" d="M108.9,36.2c-2.4-2.1-5.1-2.8-6.5-2.9c1.5,1.3,6.3,6.7,4.4,13.7c-2.3,8.5,0.1,11.9,2.5,15.5
				c0.4,0.6,0.9,1.3,1.3,2l0.8,1.4c3.8-2.3,8.1-3.9,12.7-4.5l4.8-25.5V61h0c6.4,0,12.4,1.8,17.5,4.8l0.8-1.4c0.4-0.7,0.9-1.3,1.3-2
				c2.5-3.6,4.8-7,2.5-15.5c-1.9-7,2.9-12.4,4.4-13.7c-1.4,0-4.1,0.8-6.5,2.9c-2.1,1.8-4.5,5.3-4.1,11.2c0.5,8-4.5,11.7-7.5,13.3
				l-0.4,0.2l-8-42.4l-8,42.4l-0.4-0.2c-3-1.5-8-5.3-7.5-13.3C113.4,41.5,111,38,108.9,36.2z"/>
			<path class="st0" d="M153,70.9l17.8-17.8l-14.7,21.5c2.7,3.6,4.7,7.7,5.8,12.1l1.6-0.4c0.8-0.2,1.5-0.3,2.3-0.5
				c4.3-0.8,8.3-1.6,12.8-9.2c3.6-6.3,10.8-6.7,12.8-6.5c-1-1-3.5-2.4-6.6-2.6c-2.8-0.2-6.9,0.5-10.9,5c-5.3,6-11.5,5.1-14.7,4.1
				l-0.5-0.2L183,40.9l-36.5,24.9C148.9,67.3,151.1,69,153,70.9z"/>
			<path class="st0" d="M137.1,127.9c-1.1,0.3-2.2,0.5-3.3,0.7l-4.8,25.5v-25.2h0c-2.8,0-5.6-0.4-8.2-1l8.2,43.4L137.1,127.9z"/>
			<path class="st0" d="M190.6,121.5c0-1.4-0.8-4.1-2.9-6.5c-1.8-2.1-5.3-4.5-11.2-4.1c-8,0.5-11.8-4.5-13.3-7.5l-0.2-0.4l42.4-8
				L162,86.8c0.3,1.1,0.5,2.2,0.7,3.3l25.5,4.8H163c0,0,0,0,0,0c0,6.4-1.8,12.4-4.9,17.5l1.4,0.8c0.7,0.4,1.3,0.9,2,1.3
				c3.6,2.5,7,4.8,15.5,2.5C183.9,115.2,189.3,120,190.6,121.5z"/>
			<path class="st0" d="M98.9,76.7c-3.2,1.1-9.4,2-14.7-4.1c-3.9-4.5-8.1-5.2-10.9-5c-3.1,0.2-5.6,1.6-6.6,2.6
				c2-0.2,9.2,0.3,12.8,6.5c4.4,7.6,8.5,8.4,12.8,9.2c0.7,0.1,1.5,0.3,2.2,0.5l1.6,0.4c1.1-4.5,3.1-8.6,5.8-12.1L87.2,53.1L105,70.9
				c1.9-1.9,4.1-3.6,6.5-5.1L75,40.9l24.3,35.6L98.9,76.7z"/>
		</g>
		<g>
			<g>
				<path class="st0" d="M90.9,143c2.1,1.7,4.3,3.2,6.7,4.6c0.2-2,0.8-3.6,1.4-4.9c-1.3-0.8-2.5-1.6-3.7-2.5L90.9,143z"/>
				<path class="st0" d="M160.4,147.6c2.3-1.4,4.5-2.9,6.7-4.6l-4.4-2.8c-1.2,0.9-2.4,1.7-3.7,2.5
					C159.7,144.1,160.2,145.7,160.4,147.6z"/>
				<path class="st0" d="M172,146.2c-3.7,3.1-7.6,5.8-11.9,8c-1.1,3.9-3.7,6.5-6,8.1c8.2-3.1,15.8-7.6,22.3-13.3L172,146.2z"/>
				<path class="st0" d="M63.7,124.9c-0.5-2.8-0.5-6.5,1.5-10c-1.4-4.5-2.3-9.3-2.8-14.1l-5.1-1.1C57.9,108.6,60.1,117.1,63.7,124.9
					z"/>
				<path class="st0" d="M68,102c0.3,2.7,0.8,5.4,1.5,8c1.6-1.2,3.1-2,4.5-2.5c-0.3-1.5-0.6-2.9-0.8-4.4L68,102z"/>
				<path class="st0" d="M150,158.4c-4.8,1.6-9.9,2.7-15.2,3.1l-1.1,5.1c5.5-0.4,10.9-1.3,16-2.9C150,162,150.1,160.2,150,158.4z"/>
				<path class="st0" d="M69.3,125.1c-1.4,1.2-2.6,2.5-3.6,3.9c2.6,4.8,5.7,9.3,9.3,13.3l2.8-4.3C74.5,134,71.7,129.7,69.3,125.1z"
					/>
				<path class="st0" d="M74,122.1c1.9,3.9,4.3,7.6,7,11l2.8-4.4c-1.7-2.3-3.2-4.6-4.5-7.1C77.6,121.2,75.8,121.5,74,122.1z"/>
				<path class="st0" d="M184,107.5c1.5,0.5,3,1.3,4.5,2.5c0.7-2.6,1.1-5.3,1.5-8l-5.2,1.1C184.6,104.6,184.3,106.1,184,107.5z"/>
				<path class="st0" d="M109.3,153.1c4.1,1.4,8.3,2.3,12.7,2.8l-1.1-5.2c-2.8-0.4-5.6-1-8.2-1.8
					C111.2,149.9,110.1,151.3,109.3,153.1z"/>
				<path class="st0" d="M51.5,98.4l-5-1.1c0.6,21,9.1,40,22.5,54.3l2.8-4.3C59.9,134.3,52.4,117.3,51.5,98.4z"/>
				<path class="st0" d="M97.9,154.1c-4.3-2.2-8.2-4.9-11.9-8l-4.3,2.8c6.5,5.7,14,10.3,22.3,13.3C101.6,160.6,99,158,97.9,154.1z"
					/>
				<path class="st0" d="M184,122.1c-1.8-0.7-3.6-0.9-5.3-0.6c-1.3,2.5-2.9,4.9-4.5,7.1l2.8,4.4C179.7,129.7,182.1,126.1,184,122.1z
					"/>
				<path class="st0" d="M136,155.9c4.4-0.5,8.6-1.5,12.7-2.8c-0.8-1.7-1.9-3.2-3.4-4.1c-2.7,0.8-5.4,1.4-8.2,1.8L136,155.9z"/>
				<path class="st0" d="M78.9,106.6c2.2-0.2,4.3-0.2,6.2-1l-6.6-1.4C78.6,105,78.8,105.8,78.9,106.6z"/>
				<path class="st0" d="M86.7,124.2l1.2-1.9c-0.7,0.1-1.4,0.2-2.3,0.2C86,123.1,86.4,123.6,86.7,124.2z"/>
				<path class="st0" d="M101.8,138.6c1.5-1.7,2.9-3.2,3.6-5l-5.7,3.7C100.5,137.7,101.2,138.2,101.8,138.6z"/>
				<path class="st0" d="M140.2,145.1c-0.6-0.6-1.2-1.2-1.5-1.8l-0.5,2.2C138.9,145.4,139.6,145.3,140.2,145.1z"/>
				<path class="st0" d="M119.8,145.5l-0.5-2.2c-0.4,0.5-0.9,1.1-1.5,1.8C118.4,145.3,119.1,145.4,119.8,145.5z"/>
				<path class="st0" d="M222.5,94.9c0-51.6-41.9-93.5-93.5-93.5S35.5,43.3,35.5,94.9l0,0c0,0,0,0,0,0c0,51.6,41.9,93.5,93.5,93.5
					S222.5,146.6,222.5,94.9C222.5,94.9,222.5,94.9,222.5,94.9L222.5,94.9z M217.6,96L217.6,96c-0.3,23.7-9.8,45.1-25.2,60.9l0,0
					c0,0,0,0,0,0c-16.1,16.4-38.5,26.6-63.3,26.6l0,0l0,0c-0.4,0-0.8,0-1.2,0l0,0c-23.6-0.3-45-9.9-60.7-25.2l0,0v0
					c-16.3-15.9-26.5-38.1-26.6-62.6c0-0.2,0-0.5,0-0.7c0,0,0,0,0,0c0,0,0,0,0-0.1h0c0-0.3,0-0.7,0-1l40.1-8.6
					c-1.5-1.1-3.4-3-5.5-6.5c-2.7-4.6-10.2-5.5-15.7-4.3c0,0,3.5-11.1,14.4-11.1c9.7,0,11.9,6.2,16.6,8.1L62.9,28.9l38.8,25
					c-0.3-1.8-0.3-4.6,0.7-8.5c1.3-5.2-3.3-11.1-8.1-14.2c0,0,10.3-5.4,18,2.4c6.9,6.9,4.1,12.8,6,17.5L129,1.6l0,0l0,0l10.7,49.5
					c1.9-4.6-0.9-10.6,6-17.5c7.8-7.8,18-2.4,18-2.4c-4.8,3.1-9.3,9-8.1,14.2c1,3.9,1,6.7,0.7,8.5l38.8-25l-27.5,42.6
					c4.6-1.9,6.9-8.1,16.6-8.1c11,0,14.4,11.1,14.4,11.1c-5.6-1.2-13-0.2-15.7,4.3c-2.1,3.5-4,5.4-5.5,6.5l40.3,8.7c0,0.3,0,0.6,0,1
					l0,0c0,0,0,0,0,0.1c0,0.3,0,0.6,0,0.8C217.6,95.9,217.6,96,217.6,96z"/>
				<path class="st0" d="M186.2,147.3l2.8,4.3c13.5-14.3,21.9-33.3,22.5-54.3l-5,1.1C205.6,117.3,198.1,134.3,186.2,147.3z"/>
				<path class="st0" d="M76.7,152.2l-4.3,2.8c14.3,13.5,33.3,21.9,54.2,22.5l-1.1-5C106.7,171.6,89.7,164.1,76.7,152.2z"/>
				<path class="st0" d="M172.4,122.5c-0.9,0-1.7-0.1-2.3-0.2l1.2,1.9C171.6,123.6,172,123.1,172.4,122.5z"/>
				<path class="st0" d="M188.7,125.1c-2.3,4.6-5.2,9-8.5,12.9l2.8,4.3c3.6-4.1,6.7-8.5,9.3-13.3C191.3,127.6,190,126.2,188.7,125.1
					z"/>
				<path class="st0" d="M181.3,152.2c-13,11.9-30.1,19.4-48.9,20.2l-1.1,5c21-0.6,40-9,54.2-22.5L181.3,152.2z"/>
				<path class="st0" d="M200.7,99.7l-5.1,1.1c-0.4,4.9-1.3,9.6-2.8,14.1c2,3.5,2,7.2,1.5,10C197.9,117.1,200.1,108.6,200.7,99.7z"
					/>
				<path class="st0" d="M179.6,104.2l-6.6,1.4c1.8,0.8,3.9,0.8,6.2,1C179.2,105.8,179.4,105,179.6,104.2z"/>
				<path class="st0" d="M158.2,137.2l-5.7-3.7c0.8,1.8,2.2,3.3,3.6,5C156.8,138.2,157.5,137.7,158.2,137.2z"/>
				<path class="st0" d="M123.2,161.5c-5.3-0.5-10.3-1.5-15.2-3.1c-0.1,1.8,0,3.6,0.2,5.3c5.1,1.5,10.5,2.5,16,2.9L123.2,161.5z"/>
			</g>
			<path class="st0" d="M129,66c-16,0-28.9,13-28.9,28.9c0,16,13,28.9,28.9,28.9s28.9-13,28.9-28.9C157.9,79,145,66,129,66z
				 M134,83.5c0,0,1.2-3.7,5.9-3.9c4.7-0.2,6.7,2.4,6.7,2.6l0.4,0.5l-0.6-0.1c0,0-2.7-0.5-6.1-0.3c-4.3,0.3-5.9,1.5-5.9,1.5
				l-0.6,0.4L134,83.5z M129,101.5c3,0,3.9-0.5,3.9-1.6c0-0.6-0.1-1.2-0.1-1.2s0.8,0.5,1,1.8c0.2,1.4-1.1,3.3-4.8,3.3
				c-3.7,0-5-1.9-4.8-3.3c0.1-1.3,1-1.8,1-1.8s-0.1,0.6-0.1,1.2C125.1,101,126,101.5,129,101.5z M111.3,82.2
				c0.1-0.1,1.9-2.6,6.3-2.6c0.1,0,0.3,0,0.4,0c4.7,0.2,5.9,3.9,5.9,3.9l0.2,0.7l-0.6-0.4c0,0-1.6-1.1-5.9-1.5
				c-3.4-0.3-6.1,0.2-6.1,0.3l-0.6,0.1L111.3,82.2z M111.4,106.2c-1.6,0.7-3.8-0.7-4.8-3.2c-1-2.4-0.5-4.9,1.2-5.6
				c1.6-0.7,3.8,0.7,4.8,3.2C113.6,103.1,113.1,105.6,111.4,106.2z M114.3,90.5c0-0.4,0.1-0.7,0.1-0.8c0.1-0.8-1.1-1-2.2-0.8
				c-0.5,0.1-1.2,0.2-2.3,0.6c-0.6,0.2-1.4,0.7-1.4,0.7c1.1-2.3,4-4,7.6-4.3c4.7-0.4,8.8,1.9,9.1,5.2c0.1,0.6,0,1.2-0.2,1.8
				c0,0,0-0.6-0.2-1.1c-0.1-0.2-0.1-0.3-0.2-0.5c-0.5-1.1-1.6-2.2-3.1-2.6c-2.1-0.5-3,0.3-3,0.3s0,0,0,0c-0.2,0.2-0.4,0.5-0.4,0.8
				c0,0.6,0.5,1.1,1.1,1.1c0.5,0,0.9-0.3,1-0.7c0,0.2,0,0.3,0,0.3c0,1.6-1.3,2.8-2.9,2.8C115.6,93.4,114.4,92.1,114.3,90.5z
				 M131,115.2c-0.5,0.3-1.1,0.5-1.9,0.5c-0.9,0-1.5-0.2-2-0.5c-0.5-0.3-0.8-0.6-0.8-0.6s0.4-0.1,0.9-0.2c0.5-0.1,1.2-0.1,1.8-0.1
				c0.6,0,1.3,0,1.8,0.1c0.5,0.1,0.9,0.2,0.9,0.2S131.5,114.9,131,115.2z M138.5,107.6c-2.3,2.9-5.8,4.6-9.5,4.6
				c-3.7,0-7.2-1.7-9.5-4.6l-0.6-0.7l0.8,0.3c3,1.1,6.1,1.7,9.2,1.7c3.2,0,6.3-0.6,9.2-1.7l0.8-0.3L138.5,107.6z M142,89
				c-0.2,0.2-0.4,0.5-0.4,0.8c0,0.6,0.5,1.1,1.1,1.1c0.5,0,0.8-0.3,1-0.7c0,0.1,0,0.1,0,0.2c0,1.6-1.3,2.9-2.9,2.9
				c-1.5,0-2.7-1.2-2.9-2.6c0,0,0-0.1-0.1-0.4c-0.1-0.8-0.7-0.9-1.6-0.8c-0.7,0.1-1.3,0.4-2,1.4c-0.8,1.2-1.5,5.4-1.5,5.4l0-4.5
				c0-0.3,0-0.5,0-0.9c0.1-3.2,4.3-5.5,9.1-5.1c3.6,0.3,6.5,2.1,7.6,4.3c0,0-0.4-0.2-1-0.5c-1.5-0.7-2.9-1-4.4-1.1
				C142.4,88.4,142,89,142,89C142,89,142,89,142,89z M146.6,106.2c-1.6-0.7-2.2-3.2-1.2-5.6c1-2.4,3.1-3.8,4.8-3.2
				c1.6,0.7,2.2,3.2,1.2,5.6C150.3,105.5,148.2,106.9,146.6,106.2z"/>
		</g>
	</g>
	<path class="st1" d="M139.7,51.1c1.3-3,0.5-6.6,1.7-10.7L129.1,1.6l0.6,3.1L139.7,51.1z"/>
	<path class="st1" d="M155.6,45.4c1,3.9,1,6.7,0.7,8.5l6.2-4c-1-1.8-2.2-3.7-2.8-6.5c-1.3-6.5,4-12.2,4-12.2
		C158.9,34.3,154.3,40.3,155.6,45.4z"/>
	<path class="st1" d="M174,66.7c0.1-0.1,0.2-0.2,0.3-0.3c0.3-0.2,0.5-0.4,0.9-0.6c0.7-0.5,1.5-0.9,2.3-1.2l17.5-35.7l-27.5,42.6
		C169.9,70.5,171.7,68.5,174,66.7z"/>
	<path class="st1" d="M182.9,78.8c-2.1,3.5-4,5.4-5.5,6.5l6.6,1.4l0.2,0c1.3-2.5,1.6-5.5,3.1-7.9c2.5-3.9,11.4-4.4,11.4-4.4
		C193,73.2,185.6,74.2,182.9,78.8z"/>
	<path class="st2" d="M172.9,105.7c4,1.7,9-0.2,14.7,3.7c0,0,0.6,0.4,0.6,0.5l29.2-13.7l0,0L172.9,105.7z"/>
	<path class="st2" d="M181.2,126.8c6.9-1.2,10.6,1.7,11,2.2c0,0,0,0,0,0c-0.9-1.2-1.9-2.3-3-3.4c-3.1-2.9-7.1-4.8-10.7-4
		c-3.9,1-6.7,1-8.5,0.7l4,6.1C176.7,128.3,178.9,127.2,181.2,126.8z"/>
	<path class="st2" d="M159.3,138l-6.8-4.4c1.7,4.1,6.8,6.4,7.9,13.7c0,0,0,0.1,0,0.1l30.2,10.8L159.3,138z"/>
	<path class="st2" d="M145.2,148.9c-3.5-2.1-5.4-4-6.5-5.5l-1.5,7.1c1.4,1.2,4.1,1.5,6,2.9c6.3,4.3,6.5,10.2,6.5,10.4
		C150.7,158.3,149.6,151.5,145.2,148.9z"/>
	<path class="st1" d="M118.4,51.1c-1.3-3-0.5-6.6-1.7-10.7L129,1.6l-0.6,3.1L118.4,51.1z"/>
	<path class="st1" d="M102.4,45.4c-1,3.9-1,6.7-0.7,8.5l-6.2-4c1-1.8,2.2-3.7,2.8-6.5c1.3-6.5-4-12.2-4-12.2
		C99.1,34.3,103.7,40.3,102.4,45.4z"/>
	<path class="st1" d="M84,66.7c-0.1-0.1-0.2-0.2-0.3-0.3c-0.3-0.2-0.5-0.4-0.9-0.6c-0.7-0.5-1.5-0.9-2.3-1.2L62.9,28.9l27.5,42.6
		C88.1,70.5,86.4,68.5,84,66.7z"/>
	<path class="st1" d="M75.2,78.8c2.1,3.5,4,5.4,5.5,6.5l-6.6,1.4l-0.2,0c-1.3-2.5-1.6-5.5-3.1-7.9c-2.5-3.9-11.4-4.4-11.4-4.4
		C65,73.2,72.4,74.2,75.2,78.8z"/>
	<path class="st2" d="M85.1,105.7c-4,1.7-9-0.2-14.7,3.7c0,0-0.6,0.4-0.6,0.5L40.5,96.1l0,0L85.1,105.7z"/>
	<path class="st2" d="M76.8,126.8c-6.9-1.2-10.6,1.7-11,2.2c0,0,0,0,0,0c0.9-1.2,1.9-2.3,3-3.4c3.1-2.9,7.1-4.8,10.7-4
		c3.9,1,6.7,1,8.5,0.7l-4,6.1C81.4,128.3,79.1,127.2,76.8,126.8z"/>
	<path class="st2" d="M98.7,138l6.8-4.4c-1.7,4.1-6.8,6.4-7.9,13.7c0,0,0,0.1,0,0.1l-30.2,10.8L98.7,138z"/>
	<path class="st2" d="M112.8,148.9c3.5-2.1,5.4-4,6.5-5.5l1.5,7.1c-1.4,1.2-4.1,1.5-6,2.9c-6.3,4.3-6.5,10.2-6.5,10.4
		C107.4,158.3,108.5,151.5,112.8,148.9z"/>
	<path class="st2" d="M129,103.8c-2.6,0-4-0.9-4.6-2c0.4,1.3,1.5,3,4.6,3c3.1,0,4.2-1.8,4.6-3c0,0,0,0.1-0.1,0.1
		C133,102.8,131.6,103.8,129,103.8z"/>
	<path class="st2" d="M131,115.2c-0.5,0.3-1.1,0.5-1.9,0.5c-0.9,0-1.5-0.2-2-0.5c-0.5-0.3-0.8-0.6-0.8-0.6h0c0,0,0.3,2.1,2.7,2.1
		c2.4,0,2.7-2.1,2.7-2.1l0,0C131.7,114.6,131.5,114.9,131,115.2z"/>
	<g>
		<path class="st0" d="M190.6,171.3h2.1v0.5h-0.8v2.2h-0.6v-2.2h-0.7V171.3z M195.7,171.3v2.7h-0.6V173c0-0.2,0-0.4,0-0.6l-0.6,1.6
			h-0.5l-0.6-1.6c0,0.2,0,0.4,0,0.6v1.1H193v-2.7h0.6l0.8,2.1l0.7-2.1H195.7z"/>
	</g>
</g>
</svg>
