<svg xmlns="http://www.w3.org/2000/svg" version="1.1" xmlns:xlink="http://www.w3.org/1999/xlink" xmlns:svgjs="http://svgjs.dev/svgjs" width="2000" height="300" preserveAspectRatio="none" viewBox="0 0 2000 300"><g mask="url(&quot;#SvgjsMask1456&quot;)" fill="none"><rect width="2000" height="300" x="0" y="0" fill="url(&quot;#SvgjsLinearGradient1457&quot;)"></rect><path d="M2000 0L1054.48 0L2000 21.21z" fill="rgba(255, 255, 255, .1)"></path><path d="M1054.48 0L2000 21.21L2000 93.4L679.9300000000001 0z" fill="rgba(255, 255, 255, .075)"></path><path d="M679.9300000000001 0L2000 93.4L2000 189.81L579.5300000000001 0z" fill="rgba(255, 255, 255, .05)"></path><path d="M579.53 0L2000 189.81L2000 202.48L424.49 0z" fill="rgba(255, 255, 255, .025)"></path><path d="M0 300L935.3 300L0 243.1z" fill="rgba(0, 0, 0, .1)"></path><path d="M0 243.1L935.3 300L1318.3899999999999 300L0 169.04z" fill="rgba(0, 0, 0, .075)"></path><path d="M0 169.04L1318.3899999999999 300L1578.1399999999999 300L0 160.62z" fill="rgba(0, 0, 0, .05)"></path><path d="M0 160.62L1578.1399999999999 300L1851.4699999999998 300L0 83.30000000000001z" fill="rgba(0, 0, 0, .025)"></path></g><defs><mask id="SvgjsMask1456"><rect width="2000" height="300" fill="#ffffff"></rect></mask><linearGradient x1="21.25%" y1="-141.67%" x2="78.75%" y2="241.67%" gradientUnits="userSpaceOnUse" id="SvgjsLinearGradient1457"><stop stop-color="rgba(8, 45, 7, 1)" offset="0"></stop><stop stop-color="rgba(76, 158, 0, 1)" offset="1"></stop></linearGradient></defs></svg>