<svg xmlns="http://www.w3.org/2000/svg" version="1.1" xmlns:xlink="http://www.w3.org/1999/xlink" xmlns:svgjs="http://svgjs.dev/svgjs" width="2000" height="500" preserveAspectRatio="none" viewBox="0 0 2000 500"><g mask="url(&quot;#SvgjsMask1317&quot;)" fill="none"><rect width="2000" height="500" x="0" y="0" fill="rgba(255, 165, 89, 0.79)"></rect><path d="M0,770.194C154.688,760.507,310.309,767.256,450.195,700.517C602.25,627.972,757.226,531.002,824.812,376.679C892.116,222.999,852.585,45.547,807.855,-116.152C767.136,-263.353,696.396,-403.31,581.283,-503.685C474.299,-596.972,320.919,-594.285,191.829,-653.31C33.911,-725.516,-89.746,-917.658,-260.974,-888.797C-429.061,-860.465,-501.5,-659.012,-599.943,-519.854C-689.149,-393.753,-767.435,-265.268,-807.584,-116.113C-852.034,49.022,-902.228,224.607,-843.572,385.246C-783.347,550.184,-647.692,686.369,-487.949,759.264C-336.881,828.201,-165.729,780.572,0,770.194" fill="rgba(255, 156, 72, 0.79)"></path><path d="M2000 1066.989C2107.342 1060.1979999999999 2127.65 897.453 2216.08 836.226 2299.633 778.376 2439.848 811.693 2493.436 725.345 2546.117 640.458 2500.96 526.67 2466.355 432.948 2436.286 351.51099999999997 2358.962 302.916 2310.796 230.69299999999998 2253.249 144.402 2248.115 16.040999999999997 2156.232-32.07600000000002 2063.732-80.51599999999996 1949.369-42.89700000000005 1850.0819999999999-10.572999999999979 1752.896 21.067000000000007 1648.029 62.047000000000025 1596.318 150.207 1546.329 235.43 1592.584 341.86 1585.5529999999999 440.412 1579.174 529.831 1521.911 619.8199999999999 1556.929 702.344 1592.069 785.156 1696.146 807.559 1765.606 864.7239999999999 1846.937 931.659 1894.877 1073.6390000000001 2000 1066.989" fill="rgba(255, 174, 106, 0.79)"></path></g><defs><mask id="SvgjsMask1317"><rect width="2000" height="500" fill="#ffffff"></rect></mask></defs></svg>